<svg xmlns="http://www.w3.org/2000/svg" width="359.98" height="36.401" viewBox="0 0 359.97378 36.402012" enable-background="new 0 0 432 144"><path d="m39.811 26.372c-1.953-.836-3.045-1.348-3.045-2.649 0-1.162.953-1.628 2.02-1.628 1.069 0 1.813.303 2.511 1.164l.418 2.113h1.395l.14-4.764h-1.348l-.279.65c-1.022-.512-2.068-.65-3.208-.65-2.464 0-4.765 1.486-4.765 4.091 0 2.835 1.859 3.766 4.114 4.695 1.65.674 2.928 1.255 2.928 2.742 0 1.325-1.046 2.045-2.324 2.045-1.209 0-2.395-.674-3.092-1.649l-.488-2.232-1.394.07.139 5.253h1.348l.279-.79c1.162.674 2.231.837 3.579.837 2.905 0 5.253-1.533 5.253-4.557 0-2.904-2.207-3.904-4.183-4.741m.44-21.17l1.309.181-2.302 5.803-2.319-5.803 1.241-.169.068-.011v-1.088h-5.319v1.081l1.067.233 3.818 9.234h1.414l3.825-9.283.948-.17.063-.013v-1.082h-3.812v1.087m28.52 15.405c-4.277 0-7.531 3.02-7.531 7.623 0 4.602 3.161 7.438 7.438 7.438 4.277 0 7.531-3.02 7.531-7.625 0-4.601-3.162-7.436-7.438-7.436m0 13.573c-2.278 0-3.58-2.37-3.58-6.137 0-3.765 1.255-5.95 3.486-5.95 2.278 0 3.58 2.372 3.58 6.137 0 3.767-1.255 5.95-3.486 5.95m-14.411-.324c-3.02 0-4.439-2.65-4.439-5.813 0-3.16 1.255-5.95 4.416-5.95 1.116 0 2.092.466 2.743 1.303l.442 2.139h1.395l.279-4.928h-1.348l-.302.696c-.883-.465-2.162-.696-3.789-.696-4.556 0-7.787 2.976-7.787 7.623 0 4.649 3.184 7.438 7.461 7.438 2.371 0 4.37-.813 5.812-2.511l-.907-1.139c-1.163 1.256-2.256 1.838-3.976 1.838m-28.13-28.656l1.307.203v7.906l-1.307.203v1.084h5.386v-1.087l-1.309-.2v-7.909l1.309-.198v-1.087h-5.386v1.085m160.11 4.548c1.998-.002 3.65-1.654 3.652-3.652-.002-1.995-1.654-3.649-3.652-3.651-1.998.002-3.65 1.656-3.65 3.651 0 1.998 1.652 3.65 3.65 3.652m-56.31 3.761l-1.643-.202v-3.267h2.03l.159 1.104.009.068h1.087v-3.644h-1.087l-.167 1.172h-2.03v-3.359h3.304l.233 1.658h1.222v-2.924h-8.838v1.084l1.307.203v7.906l-1.307.203v1.084h5.722v-1.086zm-128.46-2.744c.004 2.755 1.832 4.097 4.537 4.101 2.707-.004 4.432-1.448 4.437-4.101v-5.299l1.239-.268v-1.083h-3.947v1.083l1.307.268v4.729c-.013 2-.571 3.13-2.368 3.139-1.792-.009-2.422-1.205-2.433-3.206v-4.724l1.307-.201v-1.088h-5.388v1.084l1.309.203v5.363m59.922 2.746l-1.239-.203v-2.858l.716-.071 2.577 4.216h3.426v-1.078l-1.03-.283-2.414-3.542c1.127-.488 1.821-1.448 1.819-2.782-.002-2.043-1.913-2.792-3.934-2.794h-5.225v1.084l1.307.203v7.906l-1.307.203v1.084h5.303v-1.085zm-1.24-8.214c.167-.037.385-.05.59-.05 1.104.008 1.688.618 1.697 1.814-.009 1.383-.649 2.158-1.88 2.167h-.407v-3.931m9.189 9.534l.188-.534c.82.457 1.593.568 2.536.568 2.119-.004 3.864-1.137 3.866-3.365.002-2.146-1.645-2.892-3.065-3.491-1.416-.607-2.149-.963-2.145-1.836.002-.784.623-1.086 1.379-1.095.755.004 1.254.207 1.747.81l.298 1.553h1.148l.104-3.594h-1.106l-.187.441c-.728-.345-1.474-.441-2.272-.441-1.806.005-3.515 1.098-3.515 3.03-.005 2.089 1.392 2.794 3.01 3.459 1.198.49 2.067.891 2.063 1.904-.003.904-.702 1.389-1.597 1.394-.84.002-1.675-.473-2.163-1.157l-.355-1.646-1.072.055-.078.004.104 3.942h1.108m-45.858 7.448l1.813.279v11.156l-1.813.28v1.302h7.252v-1.302l-1.813-.279v-11.157l1.813-.279v-1.302h-7.252v1.302m59.42-8.769l-1.307-.203v-7.906l1.307-.201v-1.086h-5.389v1.084l1.307.203v7.906l-1.307.203v1.084h5.389v-1.084m-58.39-9.396h-4.01v1.083l1.307.268v5.125l-5.255-6.447-3.491-.028v1.083l.984.198.34.458-.018 7.392-1.307.268v1.082h4.01v-1.082l-1.309-.268v-5.712l5.724 7.03 1.716.028v-9.13l1.307-.268v-1.083m-7.396 18.16l1.813.256-2.836 8.06-2.835-8.02v-.046l1.859-.256v-1.302h-6.997v1.302l1.302.256.837 2.23-2.069 5.835-2.836-8.06 1.72-.256v-1.302h-6.973v1.302l1.394.302 4.789 12.809h1.813l3.045-8.229 3.045 8.229h1.813l4.742-12.809 1.395-.302v-1.302h-5.02v1.303m37.26-10.774h-1.256l-.233 1.792h-3.537v-3.428h2.029l.157 1.106.011.068h1.087v-3.644h-1.087l-.168 1.172h-2.029v-3.191h3.302l.235 1.658h1.222v-2.924h-8.839v1.084l1.307.203v7.906l-1.307.203v1.084h9.106v-3.089m238.84-8.402h-25.01v2.535l4.02.617v25.914l-4.02.618v2.534h15.645v-2.543l-5.04-.616v-11.409h7.088l.514 3.551h2.742v-10.288h-2.742l-.514 3.551h-7.088v-11.275h10.639l.721 5.146h3.047v-8.335zm-40.31 10.1c-2.303-.0001-4.535 1.212-6.127 4.802v-4.625l-8.799 1.038v2.396l3.143.566v15.02l-3.143.615v2.321h14.15v-2.333l-4.941-.619v-8.162c.004-3.494 1.123-5.765 3.03-6.618l4.529 2.185 1.738-5.102-.102-.11c-.848-.899-2.282-1.365-3.479-1.372m-36.39.723h-9.465v2.326l3.287.498-4.879 11.485-4.691-11.487 3.088-.497v-2.325h-12.195v2.311l2.75.633 8.404 19.285h2.6l8.404-19.283 2.697-.583v-2.363m97.06 17.698c-.42.325-.918.51-1.645.513-.924-.042-1.654-.321-1.699-2.524v-9.832c.002-2.211-.723-3.916-2.131-5.04-1.406-1.121-3.443-1.65-6.05-1.65-3.971-.009-6.605 1.334-9.05 4.206l-.148.171 2.164 2.353.184-.252c1.416-1.914 3.291-3.188 5.613-3.189 2.586.048 3.297 1.047 3.346 3.348v2.563l-4.213.735c-4.188.756-7.887 2.438-7.883 7.05.006 3.557 2.984 5.86 6.482 5.864 2.439-.004 4.537-1.466 6.08-2.896.803 1.819 2.447 2.896 4.598 2.896h.029c1.943-.004 3.994-1.062 5.33-2.444l.117-.125-.871-1.946-.255.2m-9.416-.933c-.828.796-2.082 1.397-3.191 1.395-1.861-.014-3.346-1.096-3.348-2.886.012-2.134 1.352-3.292 3.498-3.71l3.041-.61v5.811m-77.22-17.487c-6.605.011-11.67 4.544-11.68 11.375-.004 3.553 1.18 6.409 3.215 8.365 2.039 1.957 4.912 3.01 8.258 3.01h.035c4.156 0 6.822-1.44 9.459-4.03l.172-.17-1.83-2.082-.189.187c-1.637 1.576-3.344 2.753-6.361 2.759-3.824-.009-6.324-3.693-6.332-7.826v-.362h14.928v-1.543c0-2.929-.881-5.359-2.545-7.05-1.665-1.694-4.097-2.628-7.13-2.626m-5.07 8.39c.371-3.093 1.814-5.834 4.707-5.819 2.988.005 3.703 2.633 3.758 5.819h-8.465m131.85.683l-.094-.048c-3.705-1.622-4.969-2.034-4.951-3.888.008-1.687 1.313-2.557 3.09-2.575 2.91.025 3.992 1.622 4.377 4.56l.025.224h2.434l.217-7.353h-2.064l-.568 1.137c-1.547-.851-3.057-1.14-5.04-1.137-4.109.006-7.557 2.511-7.564 6.688-.004 3.271 2.223 5.323 5.197 6.618 4.162 1.826 5.416 2.327 5.404 4.242-.002 1.586-1.34 2.669-3.09 2.677-3.393-.021-5.04-1.76-5.666-5.192l-.043-.229-2.428.192.217 7.747h2.178l.463-1.209c1.387.863 3.156 1.47 5.332 1.468 4.615-.006 8.531-2.707 8.541-7.205-.003-3.349-2.56-5.229-5.97-6.717m-15.33-22.08l-9.209.927v2.4l3.137.564v28.3l-3.137.619v2.316h12.348v-2.318l-3.139-.617v-32.19m-13.57.002l-9.211.925v2.4l3.139.566v28.3l-3.139.619v2.316h12.35v-2.316l-3.139-.619v-32.19m-135.19 12.966l-9.209 1.254v2.392l3.139.566v15.02l-2.258.443-3.621-.823-7.889-11.637c3.821-1.476 6.246-4.761 6.241-8.877-.008-6.078-5.777-8.378-11.681-8.387h-14.409v2.534l4.01.618v25.914l-4.01.617v2.534h14.715v-2.536l-4.118-.615v-9.944l3.114-.275 8.379 13.371 20.734-.002v-2.319l-3.139-.615v-19.231zm-27.437 5.905h-1.651v-12.91c0 0 1.746-.167 2.423-.167 4.02.03 6.358 2.077 6.383 6.076-.031 4.628-2.516 6.971-7.155 7m-74.38 3.212l1.813.373v7.507l-7.485-9.182h-4.648v1.302l1.278.256.535.674v10.414l-1.813.371v1.302h5.346v-1.302l-1.813-.371v-8.322l8.135 9.995h2.185v-12.644l1.813-.373v-1.302h-5.346v1.302m-3.407-14.856h1.255l.268-2.01h2.097v7.895l-1.309.203v1.084h5.388v-1.084l-1.307-.203v-7.895h2.095l.268 2.01h1.256v-3.309h-10.01v3.309zm17.89-2.224l1.231.181-1.938 3.638-1.921-3.64 1.161-.166.07-.011v-1.087h-5.336v1.081l1.066.233 2.912 5.305-.008 2.575-1.307.203v1.084h5.386v-1.087l-1.307-.2v-2.981l2.755-4.938.952-.179.063-.013v-1.083h-3.779v1.085m-.676 21.17c-1.952-.836-3.045-1.348-3.045-2.649 0-1.162.953-1.628 2.02-1.628 1.069 0 1.813.303 2.51 1.164l.418 2.113h1.395l.14-4.764h-1.349l-.278.65c-1.023-.512-2.069-.65-3.208-.65-2.464 0-4.765 1.486-4.765 4.091 0 2.835 1.859 3.766 4.114 4.695 1.65.674 2.929 1.255 2.929 2.742 0 1.325-1.046 2.045-2.324 2.045-1.208 0-2.395-.674-3.092-1.649l-.488-2.232-1.395.07.139 5.253h1.349l.279-.79c1.162.674 2.231.837 3.579.837 2.905 0 5.253-1.533 5.253-4.557 0-2.904-2.207-3.904-4.183-4.741m6.368-4.091l1.813.279v11.156l-1.813.279v1.302h7.252v-1.301l-1.813-.279v-11.157l1.813-.279v-1.302h-7.252v1.302m19.873 0l1.813.373v7.507l-7.484-9.182h-4.648v1.302l1.278.256.535.674v10.414l-1.814.371v1.302h5.346v-1.302l-1.813-.371v-8.322l8.135 9.995h2.185v-12.644l1.813-.373v-1.302h-5.346v1.302m-5.069-12.99c-.006-3.359-2.324-5.438-5.443-5.443-3.121.007-5.502 2.217-5.508 5.576.004 3.358 2.322 5.437 5.443 5.443 3.121-.006 5.502-2.22 5.508-5.576m-5.443 4.343c-1.57-.005-2.496-1.638-2.5-4.343.004-2.708.893-4.208 2.435-4.212 1.57.004 2.497 1.64 2.5 4.345-.006 2.707-.894 4.206-2.435 4.21" fill="#fff"/></svg>